REM DIRINDEX 1\2\3,1\2\4,1\2\5,1\2\6
REM DIRNAME folder01,folder02,folder03,folder04,folder05,folder06
TITLE ""
FILE "186 186.mp3" MP3
  TRACK 01 AUDIO
    TITLE "0:"
    INDEX 01 00:00:00
  TRACK 02 AUDIO
    TITLE "3:cjc157_6720"
    INDEX 01 00:00:07
  TRACK 03 AUDIO
    TITLE "0:"
    INDEX 01 00:01:42
  TRACK 04 AUDIO
    TITLE "4:cjc157_6721"
    INDEX 01 00:02:10
  TRACK 05 AUDIO
    TITLE "0:"
    INDEX 01 00:03:25
  TRACK 06 AUDIO
    TITLE "5:cjc157_6722"
    INDEX 01 00:03:74
  TRACK 07 AUDIO
    TITLE "0:"
    INDEX 01 00:07:07
  TRACK 08 AUDIO
    TITLE "5:cjc157_6723"
    INDEX 01 00:07:54
  TRACK 09 AUDIO
    TITLE "0:"
    INDEX 01 00:11:66
  TRACK 10 AUDIO
    TITLE "3:cjc157_6724"
    INDEX 01 00:12:38
  TRACK 11 AUDIO
    TITLE "0:"
    INDEX 01 00:13:53
  TRACK 12 AUDIO
    TITLE "4:cjc157_6725"
    INDEX 01 00:14:27
  TRACK 13 AUDIO
    TITLE "0:"
    INDEX 01 00:18:21
  TRACK 14 AUDIO
    TITLE "5:cjc157_6726"
    INDEX 01 00:18:68
  TRACK 15 AUDIO
    TITLE "0:"
    INDEX 01 00:22:38
  TRACK 16 AUDIO
    TITLE "3:cjc157_6727"
    INDEX 01 00:23:10
  TRACK 17 AUDIO
    TITLE "0:"
    INDEX 01 00:24:47
  TRACK 18 AUDIO
    TITLE "4:cjc157_6728"
    INDEX 01 00:25:15
  TRACK 19 AUDIO
    TITLE "0:"
    INDEX 01 00:26:44
  TRACK 20 AUDIO
    TITLE "5:cjc157_6729"
    INDEX 01 00:27:10
  TRACK 21 AUDIO
    TITLE "0:"
    INDEX 01 00:30:16
  TRACK 22 AUDIO
    TITLE "5:cjc157_6730"
    INDEX 01 00:30:59
  TRACK 23 AUDIO
    TITLE "0:"
    INDEX 01 00:33:32
  TRACK 24 AUDIO
    TITLE "3:cjc157_6731"
    INDEX 01 00:34:04
  TRACK 25 AUDIO
    TITLE "0:"
    INDEX 01 00:35:06
  TRACK 26 AUDIO
    TITLE "4:cjc157_6732"
    INDEX 01 00:35:49
  TRACK 27 AUDIO
    TITLE "0:"
    INDEX 01 00:37:18
  TRACK 28 AUDIO
    TITLE "5:cjc157_6733"
    INDEX 01 00:37:63
  TRACK 29 AUDIO
    TITLE "0:"
    INDEX 01 00:41:04
  TRACK 30 AUDIO
    TITLE "3:cjc157_6734"
    INDEX 01 00:41:53
  TRACK 31 AUDIO
    TITLE "0:"
    INDEX 01 00:43:17
  TRACK 32 AUDIO
    TITLE "4:cjc157_6735"
    INDEX 01 00:43:66
  TRACK 33 AUDIO
    TITLE "0:"
    INDEX 01 00:45:37
  TRACK 34 AUDIO
    TITLE "5:cjc157_6736"
    INDEX 01 00:46:06
  TRACK 35 AUDIO
    TITLE "0:"
    INDEX 01 00:48:28
  TRACK 36 AUDIO
    TITLE "3:cjc157_6737"
    INDEX 01 00:48:71
  TRACK 37 AUDIO
    TITLE "0:"
    INDEX 01 00:50:27
  TRACK 38 AUDIO
    TITLE "4:cjc157_6738"
    INDEX 01 00:50:70
  TRACK 39 AUDIO
    TITLE "0:"
    INDEX 01 00:52:43
  TRACK 40 AUDIO
    TITLE "5:cjc157_6739"
    INDEX 01 00:53:13
  TRACK 41 AUDIO
    TITLE "0:"
    INDEX 01 00:56:12
  TRACK 42 AUDIO
    TITLE "3:cjc157_6740"
    INDEX 01 00:56:55
  TRACK 43 AUDIO
    TITLE "0:"
    INDEX 01 00:58:01
  TRACK 44 AUDIO
    TITLE "4:cjc157_6741"
    INDEX 01 00:58:42
  TRACK 45 AUDIO
    TITLE "0:"
    INDEX 01 01:00:25
  TRACK 46 AUDIO
    TITLE "5:cjc157_6742"
    INDEX 01 01:00:70
  TRACK 47 AUDIO
    TITLE "0:"
    INDEX 01 01:05:48
  TRACK 48 AUDIO
    TITLE "3:cjc157_6743"
    INDEX 01 01:06:24
  TRACK 49 AUDIO
    TITLE "0:"
    INDEX 01 01:07:25
  TRACK 50 AUDIO
    TITLE "4:cjc157_6744"
    INDEX 01 01:07:68
  TRACK 51 AUDIO
    TITLE "0:"
    INDEX 01 01:09:44
  TRACK 52 AUDIO
    TITLE "5:cjc157_6745"
    INDEX 01 01:10:16
  TRACK 53 AUDIO
    TITLE "0:"
    INDEX 01 01:14:06
  TRACK 54 AUDIO
    TITLE "3:cjc157_6746"
    INDEX 01 01:14:53
  TRACK 55 AUDIO
    TITLE "0:"
    INDEX 01 01:15:68
  TRACK 56 AUDIO
    TITLE "4:cjc157_6747"
    INDEX 01 01:16:40
  TRACK 57 AUDIO
    TITLE "0:"
    INDEX 01 01:17:73
  TRACK 58 AUDIO
    TITLE "5:cjc157_6748"
    INDEX 01 01:18:49
  TRACK 59 AUDIO
    TITLE "0:"
    INDEX 01 01:21:02
  TRACK 60 AUDIO
    TITLE "5:cjc157_6749"
    INDEX 01 01:21:51
  TRACK 61 AUDIO
    TITLE "0:"
    INDEX 01 01:24:36
  TRACK 62 AUDIO
    TITLE "3:cjc157_6750"
    INDEX 01 01:25:11
  TRACK 63 AUDIO
    TITLE "0:"
    INDEX 01 01:26:05
  TRACK 64 AUDIO
    TITLE "4:cjc157_6751"
    INDEX 01 01:26:52
  TRACK 65 AUDIO
    TITLE "0:"
    INDEX 01 01:30:17
  TRACK 66 AUDIO
    TITLE "5:cjc157_6752"
    INDEX 01 01:30:66
  TRACK 67 AUDIO
    TITLE "0:"
    INDEX 01 01:36:64
